<svg xmlns="http://www.w3.org/2000/svg" viewBox="0 0 32 32" fill="none">
  <defs>
    <linearGradient id="fav-face" x1="16" y1="3" x2="16" y2="29" gradientUnits="userSpaceOnUse">
      <stop stop-color="#A5B4FC"/>
      <stop offset="0.5" stop-color="#6366F1"/>
      <stop offset="1" stop-color="#3730A3"/>
    </linearGradient>
    <linearGradient id="fav-rim" x1="10" y1="6" x2="22" y2="18" gradientUnits="userSpaceOnUse">
      <stop stop-color="#FFFFFF" stop-opacity="0.85"/>
      <stop offset="1" stop-color="#6366F1" stop-opacity="0"/>
    </linearGradient>
    <filter id="fav-shadow" x="-20%" y="-10%" width="140%" height="140%">
      <feDropShadow dx="0" dy="1.5" stdDeviation="1.2" flood-color="#312E81" flood-opacity="0.45"/>
    </filter>
  </defs>
  <rect width="32" height="32" rx="8" fill="#EEF2FF"/>
  <ellipse cx="16" cy="28.5" rx="7" ry="1.5" fill="#312E81" opacity="0.2"/>
  <rect x="7" y="8" width="18" height="18" rx="5" fill="#312E81" transform="translate(0 1.5)" opacity="0.45"/>
  <rect x="6" y="6" width="20" height="20" rx="6" fill="url(#fav-face)" filter="url(#fav-shadow)"/>
  <rect x="8" y="8" width="16" height="9" rx="5" fill="url(#fav-rim)" opacity="0.55"/>
  <path d="M16 10.5L12 12.5v4.5c0 2.5 1.8 4.5 4 5.5 2.2-1 4-3 4-5.5v-4.5L16 10.5z" fill="none" stroke="#FFFFFF" stroke-width="1.4" stroke-linejoin="round"/>
  <path d="M14 16.5l1.5 1.5 3-3.5" fill="none" stroke="#FFFFFF" stroke-width="1.5" stroke-linecap="round" stroke-linejoin="round"/>
</svg>
